<svg width="89" height="30" viewBox="0 0 89 30" fill="none" xmlns="http://www.w3.org/2000/svg">
<path d="M4.72 23.28C4.72 22.5067 5 21.8 5.56 21.16C6.12 20.52 6.90667 20.2 7.92 20.2L12.28 20.2L12.28 23.68C11.5867 24.3733 10.84 24.92 10.04 25.32C9.24 25.72 8.41333 25.92 7.56 25.92C6.97333 25.92 6.46667 25.8 6.04 25.56C5.61333 25.2933 5.28 24.96 5.04 24.56C4.82667 24.16 4.72 23.7333 4.72 23.28ZM3.08 14.48C3.82667 14.16 4.69333 13.8667 5.68 13.6C6.69333 13.3067 7.70667 13.16 8.72 13.16C9.97333 13.16 10.8667 13.5333 11.4 14.28C11.9333 15 12.2133 15.9333 12.24 17.08L12.24 17.2L8 17.2C5.86667 17.2267 4.13333 17.76 2.8 18.8C1.46667 19.84 0.8 21.3333 0.8 23.28C0.8 25.12 1.36 26.6133 2.48 27.76C3.6 28.9067 5.32 29.48 7.64 29.48C8.65333 29.48 9.64 29.24 10.6 28.76C11.56 28.28 12.3867 27.7067 13.08 27.04L13.76 29L16.8 29L16.8 16.04C16.8 14.7333 16.4267 13.5467 15.68 12.48C14.96 11.4133 13.9867 10.5867 12.76 10C11.5333 9.38667 10.16 9.08 8.64 9.08C8.10667 9.08 7.4 9.16 6.52 9.32C5.64 9.45333 4.77333 9.65333 3.92 9.92C3.06667 10.16 2.38667 10.4533 1.88 10.8L3.08 14.48ZM25.7219 29L25.7219 16.64C26.4152 16 27.1619 15.4267 27.9619 14.92C28.7885 14.4133 29.6019 14 30.4019 13.68C31.2285 13.36 31.9619 13.2 32.6019 13.2L31.6419 9.6C30.9485 9.6 30.1885 9.77333 29.3619 10.12C28.5619 10.4667 27.7885 10.8933 27.0419 11.4C26.2952 11.88 25.6552 12.3467 25.1219 12.8L23.6419 9.6L21.2419 9.6L21.2419 29L25.7219 29ZM38.0644 29L40.1444 26.08L40.1444 0.759999L35.7044 1.2L35.7044 29L38.0644 29ZM38.5444 15.68C39.4244 14.7467 40.2644 14.0533 41.0644 13.6C41.891 13.1467 42.8377 12.92 43.9044 12.92C45.0244 12.92 45.971 13.2 46.7444 13.76C47.5177 14.2933 48.091 15.04 48.4644 16C48.8644 16.96 49.0644 18.08 49.0644 19.36C49.0644 20.5333 48.8644 21.6 48.4644 22.56C48.0644 23.52 47.4777 24.28 46.7044 24.84C45.931 25.3733 44.9844 25.64 43.8644 25.64C42.851 25.64 41.9177 25.44 41.0644 25.04C40.2377 24.6133 39.3844 23.88 38.5044 22.84L37.1844 25.96C37.691 26.68 38.331 27.3067 39.1044 27.84C39.9044 28.3733 40.731 28.7867 41.5844 29.08C42.4644 29.3733 43.2244 29.52 43.8644 29.52C45.9177 29.52 47.6644 29.0933 49.1044 28.24C50.571 27.3867 51.7044 26.2 52.5044 24.68C53.3044 23.1333 53.7044 21.3467 53.7044 19.32C53.7044 17.24 53.3044 15.44 52.5044 13.92C51.731 12.3733 50.611 11.1867 49.1444 10.36C47.7044 9.50667 45.9844 9.08 43.9844 9.08C43.2644 9.08 42.491 9.21333 41.6644 9.48C40.8644 9.74667 40.0777 10.1467 39.3044 10.68C38.531 11.1867 37.851 11.8267 37.2644 12.6L38.5444 15.68ZM74.0613 20.48L74.0613 19.52C74.0613 17.6267 73.7546 15.8933 73.1413 14.32C72.5546 12.7467 71.6213 11.48 70.3413 10.52C69.0613 9.56 67.4213 9.08 65.4213 9.08C63.4479 9.08 61.7413 9.50667 60.3013 10.36C58.8879 11.2133 57.7946 12.4133 57.0213 13.96C56.2746 15.48 55.9013 17.2667 55.9013 19.32C55.9013 21.3467 56.3013 23.1333 57.1013 24.68C57.9013 26.2 59.1146 27.3867 60.7413 28.24C62.3679 29.0667 64.3679 29.48 66.7413 29.48C67.7546 29.48 68.6879 29.3867 69.5413 29.2C70.3946 29.0133 71.1813 28.7467 71.9013 28.4C72.6213 28.0267 73.2879 27.64 73.9013 27.24L72.5413 23.96C71.5813 24.4667 70.6613 24.88 69.7813 25.2C68.9279 25.52 67.9413 25.68 66.8213 25.68C65.4346 25.68 64.3013 25.4667 63.4213 25.04C62.5679 24.5867 61.9146 23.9733 61.4613 23.2C61.0346 22.4267 60.7546 21.52 60.6213 20.48L74.0613 20.48ZM60.7013 17.44C60.8346 16.48 61.0879 15.6667 61.4613 15C61.8613 14.3333 62.3813 13.8267 63.0213 13.48C63.6879 13.1067 64.4346 12.92 65.2613 12.92C66.1146 12.92 66.8346 13.1067 67.4213 13.48C68.0346 13.8267 68.5279 14.3333 68.9013 15C69.3013 15.6667 69.5813 16.48 69.7413 17.44L60.7013 17.44ZM81.9328 29L81.9328 16.64C82.6261 16 83.3728 15.4267 84.1728 14.92C84.9995 14.4133 85.8128 14 86.6128 13.68C87.4395 13.36 88.1728 13.2 88.8128 13.2L87.8528 9.6C87.1595 9.6 86.3995 9.77333 85.5728 10.12C84.7728 10.4667 83.9995 10.8933 83.2528 11.4C82.5061 11.88 81.8661 12.3467 81.3328 12.8L79.8528 9.6L77.4528 9.6L77.4528 29L81.9328 29Z" fill="#99BAED"/>
</svg>
