<svg width="183" height="154" viewBox="0 0 183 154" fill="none" xmlns="http://www.w3.org/2000/svg">
<path d="M47.5803 16.776C41.6236 17.2971 37.0962 22.5572 37.6169 28.5147L40.2968 59.1484L30.162 63.8737C26.7678 57.9758 19.3668 55.5553 13.0846 58.4851C6.45122 61.5796 3.58174 69.4629 6.67428 76.0972C9.76801 82.73 17.6523 85.6014 24.2873 82.5077C28.8398 80.3847 31.6184 76.004 31.9143 71.3217L44.3265 65.5334L45.5196 79.1756C41.6133 81.7735 39.209 86.3699 39.6457 91.3737C40.2841 98.6663 46.7121 104.058 54.003 103.421C61.2956 102.783 66.6885 96.3554 66.0511 89.0644C65.447 82.1595 59.6501 76.9606 52.8458 76.9691L51.8707 65.8295L79.7388 52.8339C85.1593 50.3067 87.4502 43.7553 84.9231 38.336L50.8559 54.2239L47.5803 16.776ZM24.6756 73.9209C22.7785 77.2068 18.5764 78.3327 15.2905 76.4356C12.0045 74.5385 10.8787 70.3363 12.7758 67.0505C14.6733 63.7638 18.8749 62.6386 22.1609 64.5357C25.4468 66.4329 26.5732 70.6342 24.6756 73.9209ZM58.7886 93.616C56.8914 96.9019 52.6894 98.0279 49.4034 96.1307C46.1175 94.2336 44.9916 90.0315 46.8887 86.7456C48.7863 83.4589 52.9879 82.3337 56.2738 84.2308C59.5597 86.1279 60.6861 90.3293 58.7886 93.616Z" fill="#99BAED"/>
<path d="M74.72 91.28C74.72 90.5067 75 89.8 75.56 89.16C76.12 88.52 76.9067 88.2 77.92 88.2L82.28 88.2L82.28 91.68C81.5867 92.3733 80.84 92.92 80.04 93.32C79.24 93.72 78.4133 93.92 77.56 93.92C76.9733 93.92 76.4667 93.8 76.04 93.56C75.6133 93.2933 75.28 92.96 75.04 92.56C74.8267 92.16 74.72 91.7333 74.72 91.28ZM73.08 82.48C73.8267 82.16 74.6933 81.8667 75.68 81.6C76.6933 81.3067 77.7067 81.16 78.72 81.16C79.9733 81.16 80.8667 81.5333 81.4 82.28C81.9333 83 82.2133 83.9333 82.24 85.08L82.24 85.2L78 85.2C75.8667 85.2267 74.1333 85.76 72.8 86.8C71.4667 87.84 70.8 89.3333 70.8 91.28C70.8 93.12 71.36 94.6133 72.48 95.76C73.6 96.9067 75.32 97.48 77.64 97.48C78.6533 97.48 79.64 97.24 80.6 96.76C81.56 96.28 82.3867 95.7067 83.08 95.04L83.76 97L86.8 97L86.8 84.04C86.8 82.7333 86.4267 81.5467 85.68 80.48C84.96 79.4133 83.9867 78.5867 82.76 78C81.5333 77.3867 80.16 77.08 78.64 77.08C78.1067 77.08 77.4 77.16 76.52 77.32C75.64 77.4533 74.7733 77.6533 73.92 77.92C73.0667 78.16 72.3867 78.4533 71.88 78.8L73.08 82.48ZM95.7219 97L95.7219 84.64C96.4152 84 97.1619 83.4267 97.9619 82.92C98.7885 82.4133 99.6019 82 100.402 81.68C101.229 81.36 101.962 81.2 102.602 81.2L101.642 77.6C100.949 77.6 100.189 77.7733 99.3619 78.12C98.5619 78.4667 97.7885 78.8933 97.0419 79.4C96.2952 79.88 95.6552 80.3467 95.1219 80.8L93.6419 77.6L91.2419 77.6L91.2419 97L95.7219 97ZM108.064 97L110.144 94.08L110.144 68.76L105.704 69.2L105.704 97L108.064 97ZM108.544 83.68C109.424 82.7467 110.264 82.0533 111.064 81.6C111.891 81.1467 112.838 80.92 113.904 80.92C115.024 80.92 115.971 81.2 116.744 81.76C117.518 82.2933 118.091 83.04 118.464 84C118.864 84.96 119.064 86.08 119.064 87.36C119.064 88.5333 118.864 89.6 118.464 90.56C118.064 91.52 117.478 92.28 116.704 92.84C115.931 93.3733 114.984 93.64 113.864 93.64C112.851 93.64 111.918 93.44 111.064 93.04C110.238 92.6133 109.384 91.88 108.504 90.84L107.184 93.96C107.691 94.68 108.331 95.3067 109.104 95.84C109.904 96.3733 110.731 96.7867 111.584 97.08C112.464 97.3733 113.224 97.52 113.864 97.52C115.918 97.52 117.664 97.0933 119.104 96.24C120.571 95.3867 121.704 94.2 122.504 92.68C123.304 91.1333 123.704 89.3467 123.704 87.32C123.704 85.24 123.304 83.44 122.504 81.92C121.731 80.3733 120.611 79.1867 119.144 78.36C117.704 77.5067 115.984 77.08 113.984 77.08C113.264 77.08 112.491 77.2133 111.664 77.48C110.864 77.7467 110.078 78.1467 109.304 78.68C108.531 79.1867 107.851 79.8267 107.264 80.6L108.544 83.68ZM144.061 88.48L144.061 87.52C144.061 85.6267 143.755 83.8933 143.141 82.32C142.555 80.7467 141.621 79.48 140.341 78.52C139.061 77.56 137.421 77.08 135.421 77.08C133.448 77.08 131.741 77.5067 130.301 78.36C128.888 79.2133 127.795 80.4133 127.021 81.96C126.275 83.48 125.901 85.2667 125.901 87.32C125.901 89.3467 126.301 91.1333 127.101 92.68C127.901 94.2 129.115 95.3867 130.741 96.24C132.368 97.0667 134.368 97.48 136.741 97.48C137.755 97.48 138.688 97.3867 139.541 97.2C140.395 97.0133 141.181 96.7467 141.901 96.4C142.621 96.0267 143.288 95.64 143.901 95.24L142.541 91.96C141.581 92.4667 140.661 92.88 139.781 93.2C138.928 93.52 137.941 93.68 136.821 93.68C135.435 93.68 134.301 93.4667 133.421 93.04C132.568 92.5867 131.915 91.9733 131.461 91.2C131.035 90.4267 130.755 89.52 130.621 88.48L144.061 88.48ZM130.701 85.44C130.835 84.48 131.088 83.6667 131.461 83C131.861 82.3333 132.381 81.8267 133.021 81.48C133.688 81.1067 134.435 80.92 135.261 80.92C136.115 80.92 136.835 81.1067 137.421 81.48C138.035 81.8267 138.528 82.3333 138.901 83C139.301 83.6667 139.581 84.48 139.741 85.44L130.701 85.44ZM151.933 97L151.933 84.64C152.626 84 153.373 83.4267 154.173 82.92C154.999 82.4133 155.813 82 156.613 81.68C157.439 81.36 158.173 81.2 158.813 81.2L157.853 77.6C157.159 77.6 156.399 77.7733 155.573 78.12C154.773 78.4667 153.999 78.8933 153.253 79.4C152.506 79.88 151.866 80.3467 151.333 80.8L149.853 77.6L147.453 77.6L147.453 97L151.933 97Z" fill="#99BAED"/>
</svg>
