<svg width="519" height="100" viewBox="0 0 519 100" fill="none" xmlns="http://www.w3.org/2000/svg">
<path opacity="0.65" d="M4.3 18V1H2.325V18H4.3ZM11.4918 6.075V2.425L9.5168 2.975V6.075H7.7418L7.7668 7.575H9.5168V14.85C9.5168 15.9833 9.8168 16.8583 10.4168 17.475C11.0335 18.075 11.8668 18.375 12.9168 18.375C13.5501 18.375 14.1668 18.2333 14.7668 17.95L14.3168 16.4C13.9001 16.5667 13.5335 16.65 13.2168 16.65C12.6335 16.65 12.2001 16.4667 11.9168 16.1C11.6335 15.7333 11.4918 15.225 11.4918 14.575V7.575H14.3418L13.6918 6.075H11.4918ZM25.2346 3.45C25.6012 3.45 25.9179 3.325 26.1846 3.075C26.4512 2.80833 26.5846 2.49167 26.5846 2.125C26.5846 1.75833 26.4512 1.44167 26.1846 1.175C25.9179 0.908333 25.6012 0.775 25.2346 0.775C24.8512 0.775 24.5346 0.908333 24.2846 1.175C24.0346 1.425 23.9096 1.74167 23.9096 2.125C23.9096 2.50833 24.0346 2.825 24.2846 3.075C24.5346 3.325 24.8512 3.45 25.2346 3.45ZM26.2596 18V5.875H24.2596V18H26.2596ZM29.5115 17.3C29.9615 17.6167 30.5782 17.8667 31.3615 18.05C32.1449 18.2333 32.8199 18.325 33.3865 18.325C34.9532 18.325 36.1532 18.0167 36.9865 17.4C37.8365 16.7833 38.2615 15.9167 38.2615 14.8C38.2615 13.2333 36.9032 11.95 34.1865 10.95C33.2865 10.65 32.5949 10.3417 32.1115 10.025C31.6282 9.70833 31.3782 9.33333 31.3615 8.9C31.3615 8.38333 31.5949 7.96667 32.0615 7.65C32.5449 7.31667 33.1615 7.15 33.9115 7.15C34.5282 7.15 35.0782 7.225 35.5615 7.375C36.0449 7.525 36.5615 7.725 37.1115 7.975L37.7365 6.625C37.3032 6.30833 36.7032 6.05 35.9365 5.85C35.1865 5.65 34.5282 5.55 33.9615 5.55C32.5615 5.55 31.4532 5.85833 30.6365 6.475C29.8365 7.075 29.4365 7.90833 29.4365 8.975C29.4365 9.85833 29.8032 10.5833 30.5365 11.15C31.2699 11.7167 32.2199 12.1917 33.3865 12.575C35.3865 13.2417 36.3865 14.025 36.3865 14.925C36.3865 15.4917 36.1199 15.9333 35.5865 16.25C35.0532 16.5667 34.3282 16.725 33.4115 16.725C32.3615 16.725 31.2699 16.4417 30.1365 15.875L29.5115 17.3ZM48.9945 8.1C49.5945 7.83333 50.1445 7.63333 50.6445 7.5C51.1612 7.35 51.7779 7.275 52.4945 7.275C53.4112 7.275 54.0779 7.53333 54.4945 8.05C54.9279 8.56667 55.1445 9.275 55.1445 10.175V10.85H52.0195C50.7029 10.85 49.6445 11.175 48.8445 11.825C48.0445 12.475 47.6445 13.3833 47.6445 14.55C47.6445 15.6667 47.9945 16.575 48.6945 17.275C49.4112 17.975 50.4445 18.325 51.7945 18.325C52.4279 18.325 53.0779 18.175 53.7445 17.875C54.4112 17.5583 54.9695 17.1917 55.4195 16.775L55.6695 18H57.1445V9.625C57.1445 8.84167 56.9445 8.14167 56.5445 7.525C56.1445 6.90833 55.5862 6.425 54.8695 6.075C54.1529 5.725 53.3362 5.55 52.4195 5.55C51.8695 5.55 51.1695 5.65 50.3195 5.85C49.4862 6.05 48.8529 6.3 48.4195 6.6L48.9945 8.1ZM49.4695 14.55C49.4695 13.8833 49.6862 13.325 50.1195 12.875C50.5695 12.4083 51.1862 12.175 51.9695 12.175H55.1695V14.925C54.7195 15.4583 54.1945 15.8917 53.5945 16.225C53.0112 16.5583 52.3945 16.725 51.7445 16.725C50.9945 16.725 50.4279 16.5083 50.0445 16.075C49.6612 15.6417 49.4695 15.1333 49.4695 14.55ZM69.7365 18V0.349999L67.7615 0.599999V18H69.7365ZM84.8773 11.975C84.8773 13.2083 84.6273 14.3083 84.1273 15.275C83.644 16.225 82.944 16.975 82.0273 17.525C81.1107 18.0583 80.044 18.325 78.8273 18.325C77.6607 18.325 76.644 18.0583 75.7773 17.525C74.9107 16.975 74.244 16.2167 73.7773 15.25C73.3273 14.2667 73.1023 13.15 73.1023 11.9C73.119 10.6667 73.3607 9.575 73.8273 8.625C74.3107 7.65833 75.0023 6.90833 75.9023 6.375C76.8023 5.825 77.8523 5.55 79.0523 5.55C80.869 5.55 82.294 6.13333 83.3273 7.3C84.3607 8.45 84.8773 10.0083 84.8773 11.975ZM78.9273 16.65C80.1273 16.65 81.0773 16.2167 81.7773 15.35C82.4773 14.4667 82.8357 13.35 82.8523 12C82.8523 10.5667 82.519 9.41667 81.8523 8.55C81.1857 7.66667 80.244 7.225 79.0273 7.225C77.8273 7.225 76.8773 7.66667 76.1773 8.55C75.4773 9.41667 75.119 10.525 75.1023 11.875C75.1023 13.2917 75.4357 14.4417 76.1023 15.325C76.769 16.2083 77.7107 16.65 78.9273 16.65ZM89.9807 9.4C90.564 8.76667 91.2307 8.24167 91.9807 7.825C92.7473 7.40833 93.4307 7.2 94.0307 7.2C94.814 7.2 95.3723 7.45 95.7057 7.95C96.039 8.45 96.2057 9.15 96.2057 10.05V17.975H98.1807V9.775C98.1807 8.475 97.864 7.44167 97.2307 6.675C96.614 5.89167 95.664 5.5 94.3807 5.5C93.614 5.5 92.8057 5.7 91.9557 6.1C91.1057 6.5 90.389 7 89.8057 7.6L89.4807 5.875H88.0057V18H89.9807V9.4ZM111.863 5.875V19.325C111.863 20.175 111.646 20.9333 111.213 21.6C110.78 22.2667 110.146 22.7917 109.313 23.175C108.48 23.5583 107.505 23.75 106.388 23.75C105.821 23.75 105.096 23.6417 104.213 23.425C103.346 23.225 102.663 22.9667 102.163 22.65L102.763 21.2C103.413 21.5167 103.988 21.75 104.488 21.9C105.005 22.05 105.613 22.125 106.313 22.125C107.363 22.125 108.213 21.8833 108.863 21.4C109.53 20.9167 109.863 20.2167 109.863 19.3V17.375C109.413 17.675 108.93 17.9083 108.413 18.075C107.913 18.2417 107.446 18.325 107.013 18.325C105.213 18.325 103.796 17.7417 102.763 16.575C101.746 15.3917 101.238 13.825 101.238 11.875C101.238 10.6417 101.471 9.55 101.938 8.6C102.421 7.63333 103.096 6.88333 103.963 6.35C104.846 5.81667 105.88 5.55 107.063 5.55C107.563 5.55 108.096 5.65833 108.663 5.875C109.23 6.09167 109.755 6.38333 110.238 6.75L110.663 5.875H111.863ZM106.988 16.65C107.588 16.65 108.113 16.5583 108.563 16.375C109.03 16.175 109.463 15.875 109.863 15.475V8.3C109.063 7.58333 108.113 7.225 107.013 7.225C105.813 7.225 104.888 7.65833 104.238 8.525C103.588 9.375 103.255 10.4833 103.238 11.85C103.238 13.3 103.555 14.4667 104.188 15.35C104.838 16.2167 105.771 16.65 106.988 16.65ZM132.557 12.25C132.557 10.25 132.132 8.63333 131.282 7.4C130.449 6.16667 129.149 5.55 127.382 5.55C126.216 5.55 125.199 5.825 124.332 6.375C123.482 6.90833 122.832 7.65833 122.382 8.625C121.949 9.575 121.732 10.6667 121.732 11.9C121.732 13.85 122.274 15.4083 123.357 16.575C124.441 17.7417 126.016 18.325 128.082 18.325C128.916 18.325 129.674 18.2167 130.357 18C131.041 17.7667 131.724 17.4583 132.407 17.075L131.782 15.625C131.032 15.9917 130.382 16.2583 129.832 16.425C129.299 16.5917 128.707 16.675 128.057 16.675C126.624 16.675 125.557 16.2833 124.857 15.5C124.174 14.7 123.807 13.6167 123.757 12.25H132.557ZM123.807 10.9C123.924 9.76667 124.274 8.875 124.857 8.225C125.457 7.55833 126.274 7.225 127.307 7.225C129.224 7.225 130.324 8.45 130.607 10.9H123.807ZM135.083 17.3C135.533 17.6167 136.149 17.8667 136.933 18.05C137.716 18.2333 138.391 18.325 138.958 18.325C140.524 18.325 141.724 18.0167 142.558 17.4C143.408 16.7833 143.833 15.9167 143.833 14.8C143.833 13.2333 142.474 11.95 139.758 10.95C138.858 10.65 138.166 10.3417 137.683 10.025C137.199 9.70833 136.949 9.33333 136.933 8.9C136.933 8.38333 137.166 7.96667 137.633 7.65C138.116 7.31667 138.733 7.15 139.483 7.15C140.099 7.15 140.649 7.225 141.133 7.375C141.616 7.525 142.133 7.725 142.683 7.975L143.308 6.625C142.874 6.30833 142.274 6.05 141.508 5.85C140.758 5.65 140.099 5.55 139.533 5.55C138.133 5.55 137.024 5.85833 136.208 6.475C135.408 7.075 135.008 7.90833 135.008 8.975C135.008 9.85833 135.374 10.5833 136.108 11.15C136.841 11.7167 137.791 12.1917 138.958 12.575C140.958 13.2417 141.958 14.025 141.958 14.925C141.958 15.4917 141.691 15.9333 141.158 16.25C140.624 16.5667 139.899 16.725 138.983 16.725C137.933 16.725 136.841 16.4417 135.708 15.875L135.083 17.3ZM149.531 6.075V2.425L147.556 2.975V6.075H145.781L145.806 7.575H147.556V14.85C147.556 15.9833 147.856 16.8583 148.456 17.475C149.073 18.075 149.906 18.375 150.956 18.375C151.589 18.375 152.206 18.2333 152.806 17.95L152.356 16.4C151.939 16.5667 151.573 16.65 151.256 16.65C150.673 16.65 150.239 16.4667 149.956 16.1C149.673 15.7333 149.531 15.225 149.531 14.575V7.575H152.381L151.731 6.075H149.531ZM156.739 8.1C157.339 7.83333 157.889 7.63333 158.389 7.5C158.905 7.35 159.522 7.275 160.239 7.275C161.155 7.275 161.822 7.53333 162.239 8.05C162.672 8.56667 162.889 9.275 162.889 10.175V10.85H159.764C158.447 10.85 157.389 11.175 156.589 11.825C155.789 12.475 155.389 13.3833 155.389 14.55C155.389 15.6667 155.739 16.575 156.439 17.275C157.155 17.975 158.189 18.325 159.539 18.325C160.172 18.325 160.822 18.175 161.489 17.875C162.155 17.5583 162.714 17.1917 163.164 16.775L163.414 18H164.889V9.625C164.889 8.84167 164.689 8.14167 164.289 7.525C163.889 6.90833 163.33 6.425 162.614 6.075C161.897 5.725 161.08 5.55 160.164 5.55C159.614 5.55 158.914 5.65 158.064 5.85C157.23 6.05 156.597 6.3 156.164 6.6L156.739 8.1ZM157.214 14.55C157.214 13.8833 157.43 13.325 157.864 12.875C158.314 12.4083 158.93 12.175 159.714 12.175H162.914V14.925C162.464 15.4583 161.939 15.8917 161.339 16.225C160.755 16.5583 160.139 16.725 159.489 16.725C158.739 16.725 158.172 16.5083 157.789 16.075C157.405 15.6417 157.214 15.1333 157.214 14.55ZM173.721 5.55C175.521 5.55 176.929 6.14167 177.946 7.325C178.979 8.49167 179.496 10.0417 179.496 11.975C179.496 13.2083 179.254 14.3083 178.771 15.275C178.304 16.225 177.629 16.975 176.746 17.525C175.879 18.0583 174.854 18.325 173.671 18.325C173.171 18.325 172.637 18.2167 172.071 18C171.521 17.8 171.004 17.5083 170.521 17.125L170.096 18H168.921V0.599999L170.896 0.349999V6.475C171.346 6.175 171.821 5.95 172.321 5.8C172.821 5.63333 173.287 5.55 173.721 5.55ZM173.721 16.65C174.921 16.65 175.846 16.2167 176.496 15.35C177.146 14.4833 177.479 13.3667 177.496 12C177.496 10.5667 177.171 9.41667 176.521 8.55C175.887 7.66667 174.962 7.225 173.746 7.225C173.146 7.225 172.621 7.31667 172.171 7.5C171.721 7.68333 171.296 7.96667 170.896 8.35V15.575C171.296 15.925 171.721 16.1917 172.171 16.375C172.621 16.5583 173.137 16.65 173.721 16.65ZM184.878 18V0.349999L182.903 0.599999V18H184.878ZM189.969 3.45C190.336 3.45 190.652 3.325 190.919 3.075C191.186 2.80833 191.319 2.49167 191.319 2.125C191.319 1.75833 191.186 1.44167 190.919 1.175C190.652 0.908333 190.336 0.775 189.969 0.775C189.586 0.775 189.269 0.908333 189.019 1.175C188.769 1.425 188.644 1.74167 188.644 2.125C188.644 2.50833 188.769 2.825 189.019 3.075C189.269 3.325 189.586 3.45 189.969 3.45ZM190.994 18V5.875H188.994V18H190.994ZM194.246 17.3C194.696 17.6167 195.313 17.8667 196.096 18.05C196.879 18.2333 197.554 18.325 198.121 18.325C199.688 18.325 200.888 18.0167 201.721 17.4C202.571 16.7833 202.996 15.9167 202.996 14.8C202.996 13.2333 201.638 11.95 198.921 10.95C198.021 10.65 197.329 10.3417 196.846 10.025C196.363 9.70833 196.113 9.33333 196.096 8.9C196.096 8.38333 196.329 7.96667 196.796 7.65C197.279 7.31667 197.896 7.15 198.646 7.15C199.263 7.15 199.813 7.225 200.296 7.375C200.779 7.525 201.296 7.725 201.846 7.975L202.471 6.625C202.038 6.30833 201.438 6.05 200.671 5.85C199.921 5.65 199.263 5.55 198.696 5.55C197.296 5.55 196.188 5.85833 195.371 6.475C194.571 7.075 194.171 7.90833 194.171 8.975C194.171 9.85833 194.538 10.5833 195.271 11.15C196.004 11.7167 196.954 12.1917 198.121 12.575C200.121 13.2417 201.121 14.025 201.121 14.925C201.121 15.4917 200.854 15.9333 200.321 16.25C199.788 16.5667 199.063 16.725 198.146 16.725C197.096 16.725 196.004 16.4417 194.871 15.875L194.246 17.3ZM212.744 5.5C214.027 5.5 214.977 5.89167 215.594 6.675C216.227 7.44167 216.544 8.475 216.544 9.775V17.975H214.569V10.05C214.569 9.15 214.402 8.45 214.069 7.95C213.736 7.45 213.177 7.2 212.394 7.2C211.794 7.2 211.111 7.40833 210.344 7.825C209.594 8.24167 208.927 8.76667 208.344 9.4V18H206.369V0.599999L208.344 0.349999V7.425C208.927 6.85833 209.619 6.4 210.419 6.05C211.236 5.68333 212.011 5.5 212.744 5.5ZM230.421 12.25C230.421 10.25 229.996 8.63333 229.146 7.4C228.312 6.16667 227.012 5.55 225.246 5.55C224.079 5.55 223.062 5.825 222.196 6.375C221.346 6.90833 220.696 7.65833 220.246 8.625C219.812 9.575 219.596 10.6667 219.596 11.9C219.596 13.85 220.137 15.4083 221.221 16.575C222.304 17.7417 223.879 18.325 225.946 18.325C226.779 18.325 227.537 18.2167 228.221 18C228.904 17.7667 229.587 17.4583 230.271 17.075L229.646 15.625C228.896 15.9917 228.246 16.2583 227.696 16.425C227.162 16.5917 226.571 16.675 225.921 16.675C224.487 16.675 223.421 16.2833 222.721 15.5C222.037 14.7 221.671 13.6167 221.621 12.25H230.421ZM221.671 10.9C221.787 9.76667 222.137 8.875 222.721 8.225C223.321 7.55833 224.137 7.225 225.171 7.225C227.087 7.225 228.187 8.45 228.471 10.9H221.671ZM243.446 0.374999V18H242.246L241.871 17.075C241.371 17.475 240.829 17.7833 240.246 18C239.663 18.2167 239.113 18.325 238.596 18.325C236.796 18.325 235.379 17.7417 234.346 16.575C233.329 15.3917 232.821 13.825 232.821 11.875C232.821 10.6417 233.054 9.55 233.521 8.6C234.004 7.63333 234.679 6.88333 235.546 6.35C236.429 5.81667 237.463 5.55 238.646 5.55C239.079 5.55 239.538 5.63333 240.021 5.8C240.521 5.96667 240.996 6.19167 241.446 6.475V0.599999L243.446 0.374999ZM238.571 16.65C239.171 16.65 239.696 16.5583 240.146 16.375C240.613 16.175 241.046 15.875 241.446 15.475V8.3C240.646 7.58333 239.696 7.225 238.596 7.225C237.396 7.225 236.471 7.65833 235.821 8.525C235.171 9.375 234.838 10.4833 234.821 11.85C234.821 13.3 235.138 14.4667 235.771 15.35C236.421 16.2167 237.354 16.65 238.571 16.65ZM254.838 7.575V18H256.813V7.575H259.688L259.038 6.075H256.813V4.3C256.813 2.91667 257.38 2.225 258.513 2.225C258.68 2.225 258.871 2.25 259.088 2.3C259.305 2.35 259.48 2.40833 259.613 2.475L260.063 0.874998C259.846 0.758332 259.571 0.658333 259.238 0.574999C258.905 0.491666 258.571 0.449999 258.238 0.449999C257.188 0.449999 256.355 0.791666 255.738 1.475C255.138 2.14167 254.838 3.04167 254.838 4.175V6.075H252.988L253.013 7.575H254.838ZM263.409 8.1C264.009 7.83333 264.559 7.63333 265.059 7.5C265.575 7.35 266.192 7.275 266.909 7.275C267.825 7.275 268.492 7.53333 268.909 8.05C269.342 8.56667 269.559 9.275 269.559 10.175V10.85H266.434C265.117 10.85 264.059 11.175 263.259 11.825C262.459 12.475 262.059 13.3833 262.059 14.55C262.059 15.6667 262.409 16.575 263.109 17.275C263.825 17.975 264.859 18.325 266.209 18.325C266.842 18.325 267.492 18.175 268.159 17.875C268.825 17.5583 269.384 17.1917 269.834 16.775L270.084 18H271.559V9.625C271.559 8.84167 271.359 8.14167 270.959 7.525C270.559 6.90833 270 6.425 269.284 6.075C268.567 5.725 267.75 5.55 266.834 5.55C266.284 5.55 265.584 5.65 264.734 5.85C263.9 6.05 263.267 6.3 262.834 6.6L263.409 8.1ZM263.884 14.55C263.884 13.8833 264.1 13.325 264.534 12.875C264.984 12.4083 265.6 12.175 266.384 12.175H269.584V14.925C269.134 15.4583 268.609 15.8917 268.009 16.225C267.425 16.5583 266.809 16.725 266.159 16.725C265.409 16.725 264.842 16.5083 264.459 16.075C264.075 15.6417 263.884 15.1333 263.884 14.55ZM283.791 15.8C283.207 16.1 282.682 16.3167 282.216 16.45C281.749 16.5833 281.149 16.65 280.416 16.65C279.199 16.65 278.257 16.2083 277.591 15.325C276.924 14.4417 276.591 13.2917 276.591 11.875C276.607 10.525 276.966 9.41667 277.666 8.55C278.366 7.66667 279.316 7.225 280.516 7.225C281.216 7.225 281.782 7.29167 282.216 7.425C282.666 7.55833 283.224 7.76667 283.891 8.05L284.491 6.65C284.007 6.33333 283.366 6.075 282.566 5.875C281.782 5.65833 281.116 5.55 280.566 5.55C279.366 5.55 278.316 5.825 277.416 6.375C276.516 6.90833 275.816 7.65833 275.316 8.625C274.832 9.575 274.591 10.6667 274.591 11.9C274.591 13.15 274.824 14.2667 275.291 15.25C275.757 16.2167 276.432 16.975 277.316 17.525C278.199 18.0583 279.241 18.325 280.441 18.325C280.991 18.325 281.666 18.2167 282.466 18C283.266 17.8 283.916 17.5417 284.416 17.225L283.791 15.8ZM290.116 6.075V2.425L288.141 2.975V6.075H286.366L286.391 7.575H288.141V14.85C288.141 15.9833 288.441 16.8583 289.041 17.475C289.657 18.075 290.491 18.375 291.541 18.375C292.174 18.375 292.791 18.2333 293.391 17.95L292.941 16.4C292.524 16.5667 292.157 16.65 291.841 16.65C291.257 16.65 290.824 16.4667 290.541 16.1C290.257 15.7333 290.116 15.225 290.116 14.575V7.575H292.966L292.316 6.075H290.116ZM305.459 6.075V2.425L303.484 2.975V6.075H301.709L301.734 7.575H303.484V14.85C303.484 15.9833 303.784 16.8583 304.384 17.475C305 18.075 305.834 18.375 306.884 18.375C307.517 18.375 308.134 18.2333 308.734 17.95L308.284 16.4C307.867 16.5667 307.5 16.65 307.184 16.65C306.6 16.65 306.167 16.4667 305.884 16.1C305.6 15.7333 305.459 15.225 305.459 14.575V7.575H308.309L307.659 6.075H305.459ZM318.266 5.5C319.55 5.5 320.5 5.89167 321.116 6.675C321.75 7.44167 322.066 8.475 322.066 9.775V17.975H320.091V10.05C320.091 9.15 319.925 8.45 319.591 7.95C319.258 7.45 318.7 7.2 317.916 7.2C317.316 7.2 316.633 7.40833 315.866 7.825C315.116 8.24167 314.45 8.76667 313.866 9.4V18H311.891V0.599999L313.866 0.349999V7.425C314.45 6.85833 315.141 6.4 315.941 6.05C316.758 5.68333 317.533 5.5 318.266 5.5ZM326.893 8.1C327.493 7.83333 328.043 7.63333 328.543 7.5C329.06 7.35 329.676 7.275 330.393 7.275C331.31 7.275 331.976 7.53333 332.393 8.05C332.826 8.56667 333.043 9.275 333.043 10.175V10.85H329.918C328.601 10.85 327.543 11.175 326.743 11.825C325.943 12.475 325.543 13.3833 325.543 14.55C325.543 15.6667 325.893 16.575 326.593 17.275C327.31 17.975 328.343 18.325 329.693 18.325C330.326 18.325 330.976 18.175 331.643 17.875C332.31 17.5583 332.868 17.1917 333.318 16.775L333.568 18H335.043V9.625C335.043 8.84167 334.843 8.14167 334.443 7.525C334.043 6.90833 333.485 6.425 332.768 6.075C332.051 5.725 331.235 5.55 330.318 5.55C329.768 5.55 329.068 5.65 328.218 5.85C327.385 6.05 326.751 6.3 326.318 6.6L326.893 8.1ZM327.368 14.55C327.368 13.8833 327.585 13.325 328.018 12.875C328.468 12.4083 329.085 12.175 329.868 12.175H333.068V14.925C332.618 15.4583 332.093 15.8917 331.493 16.225C330.91 16.5583 330.293 16.725 329.643 16.725C328.893 16.725 328.326 16.5083 327.943 16.075C327.56 15.6417 327.368 15.1333 327.368 14.55ZM341.4 6.075V2.425L339.425 2.975V6.075H337.65L337.675 7.575H339.425V14.85C339.425 15.9833 339.725 16.8583 340.325 17.475C340.942 18.075 341.775 18.375 342.825 18.375C343.458 18.375 344.075 18.2333 344.675 17.95L344.225 16.4C343.808 16.5667 343.442 16.65 343.125 16.65C342.542 16.65 342.108 16.4667 341.825 16.1C341.542 15.7333 341.4 15.225 341.4 14.575V7.575H344.25L343.6 6.075H341.4ZM355.193 8.1C355.793 7.83333 356.343 7.63333 356.843 7.5C357.359 7.35 357.976 7.275 358.693 7.275C359.609 7.275 360.276 7.53333 360.693 8.05C361.126 8.56667 361.343 9.275 361.343 10.175V10.85H358.218C356.901 10.85 355.843 11.175 355.043 11.825C354.243 12.475 353.843 13.3833 353.843 14.55C353.843 15.6667 354.193 16.575 354.893 17.275C355.609 17.975 356.643 18.325 357.993 18.325C358.626 18.325 359.276 18.175 359.943 17.875C360.609 17.5583 361.168 17.1917 361.618 16.775L361.868 18H363.343V9.625C363.343 8.84167 363.143 8.14167 362.743 7.525C362.343 6.90833 361.784 6.425 361.068 6.075C360.351 5.725 359.534 5.55 358.618 5.55C358.068 5.55 357.368 5.65 356.518 5.85C355.684 6.05 355.051 6.3 354.618 6.6L355.193 8.1ZM355.668 14.55C355.668 13.8833 355.884 13.325 356.318 12.875C356.768 12.4083 357.384 12.175 358.168 12.175H361.368V14.925C360.918 15.4583 360.393 15.8917 359.793 16.225C359.209 16.5583 358.593 16.725 357.943 16.725C357.193 16.725 356.626 16.5083 356.243 16.075C355.859 15.6417 355.668 15.1333 355.668 14.55ZM375.685 9.65C376.251 9.06667 376.943 8.55833 377.76 8.125C378.576 7.675 379.318 7.45 379.985 7.45L379.51 5.875C378.926 5.875 378.251 6.08333 377.485 6.5C376.718 6.91667 376.06 7.35833 375.51 7.825L374.885 5.875H373.71V18H375.685V9.65ZM392.64 12.25C392.64 10.25 392.215 8.63333 391.365 7.4C390.532 6.16667 389.232 5.55 387.465 5.55C386.299 5.55 385.282 5.825 384.415 6.375C383.565 6.90833 382.915 7.65833 382.465 8.625C382.032 9.575 381.815 10.6667 381.815 11.9C381.815 13.85 382.357 15.4083 383.44 16.575C384.524 17.7417 386.099 18.325 388.165 18.325C388.999 18.325 389.757 18.2167 390.44 18C391.124 17.7667 391.807 17.4583 392.49 17.075L391.865 15.625C391.115 15.9917 390.465 16.2583 389.915 16.425C389.382 16.5917 388.79 16.675 388.14 16.675C386.707 16.675 385.64 16.2833 384.94 15.5C384.257 14.7 383.89 13.6167 383.84 12.25H392.64ZM383.89 10.9C384.007 9.76667 384.357 8.875 384.94 8.225C385.54 7.55833 386.357 7.225 387.39 7.225C389.307 7.225 390.407 8.45 390.69 10.9H383.89ZM396.816 8.1C397.416 7.83333 397.966 7.63333 398.466 7.5C398.982 7.35 399.599 7.275 400.316 7.275C401.232 7.275 401.899 7.53333 402.316 8.05C402.749 8.56667 402.966 9.275 402.966 10.175V10.85H399.841C398.524 10.85 397.466 11.175 396.666 11.825C395.866 12.475 395.466 13.3833 395.466 14.55C395.466 15.6667 395.816 16.575 396.516 17.275C397.232 17.975 398.266 18.325 399.616 18.325C400.249 18.325 400.899 18.175 401.566 17.875C402.232 17.5583 402.791 17.1917 403.241 16.775L403.491 18H404.966V9.625C404.966 8.84167 404.766 8.14167 404.366 7.525C403.966 6.90833 403.407 6.425 402.691 6.075C401.974 5.725 401.157 5.55 400.241 5.55C399.691 5.55 398.991 5.65 398.141 5.85C397.307 6.05 396.674 6.3 396.241 6.6L396.816 8.1ZM397.291 14.55C397.291 13.8833 397.507 13.325 397.941 12.875C398.391 12.4083 399.007 12.175 399.791 12.175H402.991V14.925C402.541 15.4583 402.016 15.8917 401.416 16.225C400.832 16.5583 400.216 16.725 399.566 16.725C398.816 16.725 398.249 16.5083 397.866 16.075C397.482 15.6417 397.291 15.1333 397.291 14.55ZM418.623 0.374999V18H417.423L417.048 17.075C416.548 17.475 416.006 17.7833 415.423 18C414.84 18.2167 414.29 18.325 413.773 18.325C411.973 18.325 410.556 17.7417 409.523 16.575C408.506 15.3917 407.998 13.825 407.998 11.875C407.998 10.6417 408.231 9.55 408.698 8.6C409.181 7.63333 409.856 6.88333 410.723 6.35C411.606 5.81667 412.64 5.55 413.823 5.55C414.256 5.55 414.715 5.63333 415.198 5.8C415.698 5.96667 416.173 6.19167 416.623 6.475V0.599999L418.623 0.374999ZM413.748 16.65C414.348 16.65 414.873 16.5583 415.323 16.375C415.79 16.175 416.223 15.875 416.623 15.475V8.3C415.823 7.58333 414.873 7.225 413.773 7.225C412.573 7.225 411.648 7.65833 410.998 8.525C410.348 9.375 410.015 10.4833 409.998 11.85C409.998 13.3 410.315 14.4667 410.948 15.35C411.598 16.2167 412.531 16.65 413.748 16.65ZM432.83 12.25C432.83 10.25 432.405 8.63333 431.555 7.4C430.721 6.16667 429.421 5.55 427.655 5.55C426.488 5.55 425.471 5.825 424.605 6.375C423.755 6.90833 423.105 7.65833 422.655 8.625C422.221 9.575 422.005 10.6667 422.005 11.9C422.005 13.85 422.546 15.4083 423.63 16.575C424.713 17.7417 426.288 18.325 428.355 18.325C429.188 18.325 429.946 18.2167 430.63 18C431.313 17.7667 431.996 17.4583 432.68 17.075L432.055 15.625C431.305 15.9917 430.655 16.2583 430.105 16.425C429.571 16.5917 428.98 16.675 428.33 16.675C426.896 16.675 425.83 16.2833 425.13 15.5C424.446 14.7 424.08 13.6167 424.03 12.25H432.83ZM424.08 10.9C424.196 9.76667 424.546 8.875 425.13 8.225C425.73 7.55833 426.546 7.225 427.58 7.225C429.496 7.225 430.596 8.45 430.88 10.9H424.08ZM437.955 9.65C438.522 9.06667 439.214 8.55833 440.03 8.125C440.847 7.675 441.589 7.45 442.255 7.45L441.78 5.875C441.197 5.875 440.522 6.08333 439.755 6.5C438.989 6.91667 438.33 7.35833 437.78 7.825L437.155 5.875H435.98V18H437.955V9.65ZM462.821 18L466.396 5.875H464.396L461.846 15.175L459.146 5.875H457.146L454.596 15.175L451.896 5.5L450.096 6.25L453.621 18H455.546L458.121 8.775L460.871 18H462.821ZM469.943 3.45C470.309 3.45 470.626 3.325 470.893 3.075C471.159 2.80833 471.293 2.49167 471.293 2.125C471.293 1.75833 471.159 1.44167 470.893 1.175C470.626 0.908333 470.309 0.775 469.943 0.775C469.559 0.775 469.243 0.908333 468.993 1.175C468.743 1.425 468.618 1.74167 468.618 2.125C468.618 2.50833 468.743 2.825 468.993 3.075C469.243 3.325 469.559 3.45 469.943 3.45ZM470.968 18V5.875H468.968V18H470.968ZM477.07 18V0.349999L475.095 0.599999V18H477.07ZM483.41 18V0.349999L481.435 0.599999V18H483.41ZM499.161 5.55C500.961 5.55 502.369 6.14167 503.386 7.325C504.419 8.49167 504.936 10.0417 504.936 11.975C504.936 13.2083 504.694 14.3083 504.211 15.275C503.744 16.225 503.069 16.975 502.186 17.525C501.319 18.0583 500.294 18.325 499.111 18.325C498.611 18.325 498.078 18.2167 497.511 18C496.961 17.8 496.444 17.5083 495.961 17.125L495.536 18H494.361V0.599999L496.336 0.349999V6.475C496.786 6.175 497.261 5.95 497.761 5.8C498.261 5.63333 498.728 5.55 499.161 5.55ZM499.161 16.65C500.361 16.65 501.286 16.2167 501.936 15.35C502.586 14.4833 502.919 13.3667 502.936 12C502.936 10.5667 502.611 9.41667 501.961 8.55C501.328 7.66667 500.403 7.225 499.186 7.225C498.586 7.225 498.061 7.31667 497.611 7.5C497.161 7.68333 496.736 7.96667 496.336 8.35V15.575C496.736 15.925 497.161 16.1917 497.611 16.375C498.061 16.5583 498.578 16.65 499.161 16.65ZM518.169 12.25C518.169 10.25 517.744 8.63333 516.894 7.4C516.06 6.16667 514.76 5.55 512.994 5.55C511.827 5.55 510.81 5.825 509.944 6.375C509.094 6.90833 508.444 7.65833 507.994 8.625C507.56 9.575 507.344 10.6667 507.344 11.9C507.344 13.85 507.885 15.4083 508.969 16.575C510.052 17.7417 511.627 18.325 513.694 18.325C514.527 18.325 515.285 18.2167 515.969 18C516.652 17.7667 517.335 17.4583 518.019 17.075L517.394 15.625C516.644 15.9917 515.994 16.2583 515.444 16.425C514.91 16.5917 514.319 16.675 513.669 16.675C512.235 16.675 511.169 16.2833 510.469 15.5C509.785 14.7 509.419 13.6167 509.369 12.25H518.169ZM509.419 10.9C509.535 9.76667 509.885 8.875 510.469 8.225C511.069 7.55833 511.885 7.225 512.919 7.225C514.835 7.225 515.935 8.45 516.219 10.9H509.419ZM11.45 38.375V56H10.25L9.875 55.075C9.375 55.475 8.83333 55.7833 8.25 56C7.66667 56.2167 7.11667 56.325 6.6 56.325C4.8 56.325 3.38333 55.7417 2.35 54.575C1.33333 53.3917 0.825 51.825 0.825 49.875C0.825 48.6417 1.05833 47.55 1.525 46.6C2.00833 45.6333 2.68333 44.8833 3.55 44.35C4.43333 43.8167 5.46667 43.55 6.65 43.55C7.08333 43.55 7.54167 43.6333 8.025 43.8C8.525 43.9667 9 44.1917 9.45 44.475V38.6L11.45 38.375ZM6.575 54.65C7.175 54.65 7.7 54.5583 8.15 54.375C8.61667 54.175 9.05 53.875 9.45 53.475V46.3C8.65 45.5833 7.7 45.225 6.6 45.225C5.4 45.225 4.475 45.6583 3.825 46.525C3.175 47.375 2.84167 48.4833 2.825 49.85C2.825 51.3 3.14167 52.4667 3.775 53.35C4.425 54.2167 5.35833 54.65 6.575 54.65ZM16.5568 41.45C16.9235 41.45 17.2402 41.325 17.5068 41.075C17.7735 40.8083 17.9068 40.4917 17.9068 40.125C17.9068 39.7583 17.7735 39.4417 17.5068 39.175C17.2402 38.9083 16.9235 38.775 16.5568 38.775C16.1735 38.775 15.8568 38.9083 15.6068 39.175C15.3568 39.425 15.2318 39.7417 15.2318 40.125C15.2318 40.5083 15.3568 40.825 15.6068 41.075C15.8568 41.325 16.1735 41.45 16.5568 41.45ZM17.5818 56V43.875H15.5818V56H17.5818ZM20.8338 55.3C21.2838 55.6167 21.9005 55.8667 22.6838 56.05C23.4671 56.2333 24.1421 56.325 24.7088 56.325C26.2755 56.325 27.4755 56.0167 28.3088 55.4C29.1588 54.7833 29.5838 53.9167 29.5838 52.8C29.5838 51.2333 28.2255 49.95 25.5088 48.95C24.6088 48.65 23.9171 48.3417 23.4338 48.025C22.9505 47.7083 22.7005 47.3333 22.6838 46.9C22.6838 46.3833 22.9171 45.9667 23.3838 45.65C23.8671 45.3167 24.4838 45.15 25.2338 45.15C25.8505 45.15 26.4005 45.225 26.8838 45.375C27.3671 45.525 27.8838 45.725 28.4338 45.975L29.0588 44.625C28.6255 44.3083 28.0255 44.05 27.2588 43.85C26.5088 43.65 25.8505 43.55 25.2838 43.55C23.8838 43.55 22.7755 43.8583 21.9588 44.475C21.1588 45.075 20.7588 45.9083 20.7588 46.975C20.7588 47.8583 21.1255 48.5833 21.8588 49.15C22.5921 49.7167 23.5421 50.1917 24.7088 50.575C26.7088 51.2417 27.7088 52.025 27.7088 52.925C27.7088 53.4917 27.4421 53.9333 26.9088 54.25C26.3755 54.5667 25.6505 54.725 24.7338 54.725C23.6838 54.725 22.5921 54.4417 21.4588 53.875L20.8338 55.3ZM35.2818 44.075V40.425L33.3068 40.975V44.075H31.5318L31.5568 45.575H33.3068V52.85C33.3068 53.9833 33.6068 54.8583 34.2068 55.475C34.8235 56.075 35.6568 56.375 36.7068 56.375C37.3402 56.375 37.9568 56.2333 38.5568 55.95L38.1068 54.4C37.6902 54.5667 37.3235 54.65 37.0068 54.65C36.4235 54.65 35.9902 54.4667 35.7068 54.1C35.4235 53.7333 35.2818 53.225 35.2818 52.575V45.575H38.1318L37.4818 44.075H35.2818ZM43.4396 47.65C44.0063 47.0667 44.698 46.5583 45.5146 46.125C46.3313 45.675 47.073 45.45 47.7396 45.45L47.2646 43.875C46.6813 43.875 46.0063 44.0833 45.2396 44.5C44.473 44.9167 43.8146 45.3583 43.2646 45.825L42.6396 43.875H41.4646V56H43.4396V47.65ZM51.3451 46.1C51.9451 45.8333 52.4951 45.6333 52.9951 45.5C53.5118 45.35 54.1285 45.275 54.8451 45.275C55.7618 45.275 56.4285 45.5333 56.8451 46.05C57.2785 46.5667 57.4951 47.275 57.4951 48.175V48.85H54.3701C53.0535 48.85 51.9951 49.175 51.1951 49.825C50.3951 50.475 49.9951 51.3833 49.9951 52.55C49.9951 53.6667 50.3451 54.575 51.0451 55.275C51.7618 55.975 52.7951 56.325 54.1451 56.325C54.7785 56.325 55.4285 56.175 56.0951 55.875C56.7618 55.5583 57.3201 55.1917 57.7701 54.775L58.0201 56H59.4951V47.625C59.4951 46.8417 59.2951 46.1417 58.8951 45.525C58.4951 44.9083 57.9368 44.425 57.2201 44.075C56.5035 43.725 55.6868 43.55 54.7701 43.55C54.2201 43.55 53.5201 43.65 52.6701 43.85C51.8368 44.05 51.2035 44.3 50.7701 44.6L51.3451 46.1ZM51.8201 52.55C51.8201 51.8833 52.0368 51.325 52.4701 50.875C52.9201 50.4083 53.5368 50.175 54.3201 50.175H57.5201V52.925C57.0701 53.4583 56.5451 53.8917 55.9451 54.225C55.3618 54.5583 54.7451 54.725 54.0951 54.725C53.3451 54.725 52.7785 54.5083 52.3951 54.075C52.0118 53.6417 51.8201 53.1333 51.8201 52.55ZM71.7271 53.8C71.1438 54.1 70.6188 54.3167 70.1521 54.45C69.6855 54.5833 69.0855 54.65 68.3521 54.65C67.1355 54.65 66.1938 54.2083 65.5271 53.325C64.8605 52.4417 64.5271 51.2917 64.5271 49.875C64.5438 48.525 64.9021 47.4167 65.6021 46.55C66.3021 45.6667 67.2521 45.225 68.4521 45.225C69.1521 45.225 69.7188 45.2917 70.1521 45.425C70.6021 45.5583 71.1605 45.7667 71.8271 46.05L72.4271 44.65C71.9438 44.3333 71.3021 44.075 70.5021 43.875C69.7188 43.6583 69.0521 43.55 68.5021 43.55C67.3021 43.55 66.2521 43.825 65.3521 44.375C64.4521 44.9083 63.7521 45.6583 63.2521 46.625C62.7688 47.575 62.5271 48.6667 62.5271 49.9C62.5271 51.15 62.7605 52.2667 63.2271 53.25C63.6938 54.2167 64.3688 54.975 65.2521 55.525C66.1355 56.0583 67.1771 56.325 68.3771 56.325C68.9271 56.325 69.6021 56.2167 70.4021 56C71.2021 55.8 71.8521 55.5417 72.3521 55.225L71.7271 53.8ZM78.0523 44.075V40.425L76.0773 40.975V44.075H74.3023L74.3273 45.575H76.0773V52.85C76.0773 53.9833 76.3773 54.8583 76.9773 55.475C77.594 56.075 78.4273 56.375 79.4773 56.375C80.1107 56.375 80.7273 56.2333 81.3273 55.95L80.8773 54.4C80.4607 54.5667 80.094 54.65 79.7773 54.65C79.194 54.65 78.7607 54.4667 78.4773 54.1C78.194 53.7333 78.0523 53.225 78.0523 52.575V45.575H80.9023L80.2523 44.075H78.0523ZM94.3102 50.25C94.3102 48.25 93.8852 46.6333 93.0352 45.4C92.2018 44.1667 90.9018 43.55 89.1352 43.55C87.9685 43.55 86.9518 43.825 86.0852 44.375C85.2352 44.9083 84.5852 45.6583 84.1352 46.625C83.7018 47.575 83.4852 48.6667 83.4852 49.9C83.4852 51.85 84.0268 53.4083 85.1102 54.575C86.1935 55.7417 87.7685 56.325 89.8352 56.325C90.6685 56.325 91.4268 56.2167 92.1102 56C92.7935 55.7667 93.4768 55.4583 94.1602 55.075L93.5352 53.625C92.7852 53.9917 92.1352 54.2583 91.5852 54.425C91.0518 54.5917 90.4602 54.675 89.8102 54.675C88.3768 54.675 87.3102 54.2833 86.6102 53.5C85.9268 52.7 85.5602 51.6167 85.5102 50.25H94.3102ZM85.5602 48.9C85.6768 47.7667 86.0268 46.875 86.6102 46.225C87.2102 45.5583 88.0268 45.225 89.0602 45.225C90.9768 45.225 92.0768 46.45 92.3602 48.9H85.5602ZM107.336 38.375V56H106.136L105.761 55.075C105.261 55.475 104.719 55.7833 104.136 56C103.552 56.2167 103.002 56.325 102.486 56.325C100.686 56.325 99.2691 55.7417 98.2357 54.575C97.2191 53.3917 96.7107 51.825 96.7107 49.875C96.7107 48.6417 96.9441 47.55 97.4107 46.6C97.8941 45.6333 98.5691 44.8833 99.4357 44.35C100.319 43.8167 101.352 43.55 102.536 43.55C102.969 43.55 103.427 43.6333 103.911 43.8C104.411 43.9667 104.886 44.1917 105.336 44.475V38.6L107.336 38.375ZM102.461 54.65C103.061 54.65 103.586 54.5583 104.036 54.375C104.502 54.175 104.936 53.875 105.336 53.475V46.3C104.536 45.5833 103.586 45.225 102.486 45.225C101.286 45.225 100.361 45.6583 99.7107 46.525C99.0607 47.375 98.7274 48.4833 98.7107 49.85C98.7107 51.3 99.0274 52.4667 99.6607 53.35C100.311 54.2167 101.244 54.65 102.461 54.65ZM123.103 43.55C124.903 43.55 126.311 44.1417 127.328 45.325C128.361 46.4917 128.878 48.0417 128.878 49.975C128.878 51.2083 128.636 52.3083 128.153 53.275C127.686 54.225 127.011 54.975 126.128 55.525C125.261 56.0583 124.236 56.325 123.053 56.325C122.553 56.325 122.019 56.2167 121.453 56C120.903 55.8 120.386 55.5083 119.903 55.125L119.478 56H118.303V38.6L120.278 38.35V44.475C120.728 44.175 121.203 43.95 121.703 43.8C122.203 43.6333 122.669 43.55 123.103 43.55ZM123.103 54.65C124.303 54.65 125.228 54.2167 125.878 53.35C126.528 52.4833 126.861 51.3667 126.878 50C126.878 48.5667 126.553 47.4167 125.903 46.55C125.269 45.6667 124.344 45.225 123.128 45.225C122.528 45.225 122.003 45.3167 121.553 45.5C121.103 45.6833 120.678 45.9667 120.278 46.35V53.575C120.678 53.925 121.103 54.1917 121.553 54.375C122.003 54.5583 122.519 54.65 123.103 54.65ZM134.46 58C134.277 58.5 133.993 58.875 133.61 59.125C133.243 59.3917 132.668 59.7083 131.885 60.075L132.485 61.5C133.368 61.3167 134.143 60.9583 134.81 60.425C135.493 59.8917 135.977 59.25 136.26 58.5L141.61 43.875H139.61L136.135 53.25L132.46 43.5L130.71 44.25L135.21 55.925L134.46 58ZM153.346 44.075V40.425L151.371 40.975V44.075H149.596L149.621 45.575H151.371V52.85C151.371 53.9833 151.671 54.8583 152.271 55.475C152.888 56.075 153.721 56.375 154.771 56.375C155.405 56.375 156.021 56.2333 156.621 55.95L156.171 54.4C155.755 54.5667 155.388 54.65 155.071 54.65C154.488 54.65 154.055 54.4667 153.771 54.1C153.488 53.7333 153.346 53.225 153.346 52.575V45.575H156.196L155.546 44.075H153.346ZM166.154 43.5C167.437 43.5 168.387 43.8917 169.004 44.675C169.637 45.4417 169.954 46.475 169.954 47.775V55.975H167.979V48.05C167.979 47.15 167.812 46.45 167.479 45.95C167.146 45.45 166.587 45.2 165.804 45.2C165.204 45.2 164.521 45.4083 163.754 45.825C163.004 46.2417 162.337 46.7667 161.754 47.4V56H159.779V38.6L161.754 38.35V45.425C162.337 44.8583 163.029 44.4 163.829 44.05C164.646 43.6833 165.421 43.5 166.154 43.5ZM183.831 50.25C183.831 48.25 183.406 46.6333 182.556 45.4C181.722 44.1667 180.422 43.55 178.656 43.55C177.489 43.55 176.472 43.825 175.606 44.375C174.756 44.9083 174.106 45.6583 173.656 46.625C173.222 47.575 173.006 48.6667 173.006 49.9C173.006 51.85 173.547 53.4083 174.631 54.575C175.714 55.7417 177.289 56.325 179.356 56.325C180.189 56.325 180.947 56.2167 181.631 56C182.314 55.7667 182.997 55.4583 183.681 55.075L183.056 53.625C182.306 53.9917 181.656 54.2583 181.106 54.425C180.572 54.5917 179.981 54.675 179.331 54.675C177.897 54.675 176.831 54.2833 176.131 53.5C175.447 52.7 175.081 51.6167 175.031 50.25H183.831ZM175.081 48.9C175.197 47.7667 175.547 46.875 176.131 46.225C176.731 45.5583 177.547 45.225 178.581 45.225C180.497 45.225 181.597 46.45 181.881 48.9H175.081ZM195.541 47.65C196.108 47.0667 196.8 46.5583 197.616 46.125C198.433 45.675 199.175 45.45 199.841 45.45L199.366 43.875C198.783 43.875 198.108 44.0833 197.341 44.5C196.575 44.9167 195.916 45.3583 195.366 45.825L194.741 43.875H193.566V56H195.541V47.65ZM212.497 50.25C212.497 48.25 212.072 46.6333 211.222 45.4C210.388 44.1667 209.088 43.55 207.322 43.55C206.155 43.55 205.138 43.825 204.272 44.375C203.422 44.9083 202.772 45.6583 202.322 46.625C201.888 47.575 201.672 48.6667 201.672 49.9C201.672 51.85 202.213 53.4083 203.297 54.575C204.38 55.7417 205.955 56.325 208.022 56.325C208.855 56.325 209.613 56.2167 210.297 56C210.98 55.7667 211.663 55.4583 212.347 55.075L211.722 53.625C210.972 53.9917 210.322 54.2583 209.772 54.425C209.238 54.5917 208.647 54.675 207.997 54.675C206.563 54.675 205.497 54.2833 204.797 53.5C204.113 52.7 203.747 51.6167 203.697 50.25H212.497ZM203.747 48.9C203.863 47.7667 204.213 46.875 204.797 46.225C205.397 45.5583 206.213 45.225 207.247 45.225C209.163 45.225 210.263 46.45 210.547 48.9H203.747ZM216.672 46.1C217.272 45.8333 217.822 45.6333 218.322 45.5C218.839 45.35 219.456 45.275 220.172 45.275C221.089 45.275 221.756 45.5333 222.172 46.05C222.606 46.5667 222.822 47.275 222.822 48.175V48.85H219.697C218.381 48.85 217.322 49.175 216.522 49.825C215.722 50.475 215.322 51.3833 215.322 52.55C215.322 53.6667 215.672 54.575 216.372 55.275C217.089 55.975 218.122 56.325 219.472 56.325C220.106 56.325 220.756 56.175 221.422 55.875C222.089 55.5583 222.647 55.1917 223.097 54.775L223.347 56H224.822V47.625C224.822 46.8417 224.622 46.1417 224.222 45.525C223.822 44.9083 223.264 44.425 222.547 44.075C221.831 43.725 221.014 43.55 220.097 43.55C219.547 43.55 218.847 43.65 217.997 43.85C217.164 44.05 216.531 44.3 216.097 44.6L216.672 46.1ZM217.147 52.55C217.147 51.8833 217.364 51.325 217.797 50.875C218.247 50.4083 218.864 50.175 219.647 50.175H222.847V52.925C222.397 53.4583 221.872 53.8917 221.272 54.225C220.689 54.5583 220.072 54.725 219.422 54.725C218.672 54.725 218.106 54.5083 217.722 54.075C217.339 53.6417 217.147 53.1333 217.147 52.55ZM238.479 38.375V56H237.279L236.904 55.075C236.404 55.475 235.863 55.7833 235.279 56C234.696 56.2167 234.146 56.325 233.629 56.325C231.829 56.325 230.413 55.7417 229.379 54.575C228.363 53.3917 227.854 51.825 227.854 49.875C227.854 48.6417 228.088 47.55 228.554 46.6C229.038 45.6333 229.713 44.8833 230.579 44.35C231.463 43.8167 232.496 43.55 233.679 43.55C234.113 43.55 234.571 43.6333 235.054 43.8C235.554 43.9667 236.029 44.1917 236.479 44.475V38.6L238.479 38.375ZM233.604 54.65C234.204 54.65 234.729 54.5583 235.179 54.375C235.646 54.175 236.079 53.875 236.479 53.475V46.3C235.679 45.5833 234.729 45.225 233.629 45.225C232.429 45.225 231.504 45.6583 230.854 46.525C230.204 47.375 229.871 48.4833 229.854 49.85C229.854 51.3 230.171 52.4667 230.804 53.35C231.454 54.2167 232.388 54.65 233.604 54.65ZM243.636 46.1C244.236 45.8333 244.786 45.6333 245.286 45.5C245.803 45.35 246.419 45.275 247.136 45.275C248.053 45.275 248.719 45.5333 249.136 46.05C249.569 46.5667 249.786 47.275 249.786 48.175V48.85H246.661C245.344 48.85 244.286 49.175 243.486 49.825C242.686 50.475 242.286 51.3833 242.286 52.55C242.286 53.6667 242.636 54.575 243.336 55.275C244.053 55.975 245.086 56.325 246.436 56.325C247.069 56.325 247.719 56.175 248.386 55.875C249.053 55.5583 249.611 55.1917 250.061 54.775L250.311 56H251.786V47.625C251.786 46.8417 251.586 46.1417 251.186 45.525C250.786 44.9083 250.228 44.425 249.511 44.075C248.794 43.725 247.978 43.55 247.061 43.55C246.511 43.55 245.811 43.65 244.961 43.85C244.128 44.05 243.494 44.3 243.061 44.6L243.636 46.1ZM244.111 52.55C244.111 51.8833 244.328 51.325 244.761 50.875C245.211 50.4083 245.828 50.175 246.611 50.175H249.811V52.925C249.361 53.4583 248.836 53.8917 248.236 54.225C247.653 54.5583 247.036 54.725 246.386 54.725C245.636 54.725 245.069 54.5083 244.686 54.075C244.303 53.6417 244.111 53.1333 244.111 52.55ZM260.618 43.55C262.418 43.55 263.826 44.1417 264.843 45.325C265.876 46.4917 266.393 48.0417 266.393 49.975C266.393 51.2083 266.151 52.3083 265.668 53.275C265.201 54.225 264.526 54.975 263.643 55.525C262.776 56.0583 261.751 56.325 260.568 56.325C260.068 56.325 259.535 56.2167 258.968 56C258.418 55.8 257.901 55.5083 257.418 55.125L256.993 56H255.818V38.6L257.793 38.35V44.475C258.243 44.175 258.718 43.95 259.218 43.8C259.718 43.6333 260.185 43.55 260.618 43.55ZM260.618 54.65C261.818 54.65 262.743 54.2167 263.393 53.35C264.043 52.4833 264.376 51.3667 264.393 50C264.393 48.5667 264.068 47.4167 263.418 46.55C262.785 45.6667 261.86 45.225 260.643 45.225C260.043 45.225 259.518 45.3167 259.068 45.5C258.618 45.6833 258.193 45.9667 257.793 46.35V53.575C258.193 53.925 258.618 54.1917 259.068 54.375C259.518 54.5583 260.035 54.65 260.618 54.65ZM271.776 56V38.35L269.801 38.6V56H271.776ZM285.966 50.25C285.966 48.25 285.541 46.6333 284.691 45.4C283.858 44.1667 282.558 43.55 280.791 43.55C279.625 43.55 278.608 43.825 277.741 44.375C276.891 44.9083 276.241 45.6583 275.791 46.625C275.358 47.575 275.141 48.6667 275.141 49.9C275.141 51.85 275.683 53.4083 276.766 54.575C277.85 55.7417 279.425 56.325 281.491 56.325C282.325 56.325 283.083 56.2167 283.766 56C284.45 55.7667 285.133 55.4583 285.816 55.075L285.191 53.625C284.441 53.9917 283.791 54.2583 283.241 54.425C282.708 54.5917 282.116 54.675 281.466 54.675C280.033 54.675 278.966 54.2833 278.266 53.5C277.583 52.7 277.216 51.6167 277.166 50.25H285.966ZM277.216 48.9C277.333 47.7667 277.683 46.875 278.266 46.225C278.866 45.5583 279.683 45.225 280.716 45.225C282.633 45.225 283.733 46.45 284.016 48.9H277.216ZM304.152 53.8C303.569 54.1 303.044 54.3167 302.577 54.45C302.11 54.5833 301.51 54.65 300.777 54.65C299.56 54.65 298.619 54.2083 297.952 53.325C297.285 52.4417 296.952 51.2917 296.952 49.875C296.969 48.525 297.327 47.4167 298.027 46.55C298.727 45.6667 299.677 45.225 300.877 45.225C301.577 45.225 302.144 45.2917 302.577 45.425C303.027 45.5583 303.585 45.7667 304.252 46.05L304.852 44.65C304.369 44.3333 303.727 44.075 302.927 43.875C302.144 43.6583 301.477 43.55 300.927 43.55C299.727 43.55 298.677 43.825 297.777 44.375C296.877 44.9083 296.177 45.6583 295.677 46.625C295.194 47.575 294.952 48.6667 294.952 49.9C294.952 51.15 295.185 52.2667 295.652 53.25C296.119 54.2167 296.794 54.975 297.677 55.525C298.56 56.0583 299.602 56.325 300.802 56.325C301.352 56.325 302.027 56.2167 302.827 56C303.627 55.8 304.277 55.5417 304.777 55.225L304.152 53.8ZM318.927 49.975C318.927 51.2083 318.677 52.3083 318.177 53.275C317.694 54.225 316.994 54.975 316.077 55.525C315.16 56.0583 314.094 56.325 312.877 56.325C311.71 56.325 310.694 56.0583 309.827 55.525C308.96 54.975 308.294 54.2167 307.827 53.25C307.377 52.2667 307.152 51.15 307.152 49.9C307.169 48.6667 307.41 47.575 307.877 46.625C308.36 45.6583 309.052 44.9083 309.952 44.375C310.852 43.825 311.902 43.55 313.102 43.55C314.919 43.55 316.344 44.1333 317.377 45.3C318.41 46.45 318.927 48.0083 318.927 49.975ZM312.977 54.65C314.177 54.65 315.127 54.2167 315.827 53.35C316.527 52.4667 316.885 51.35 316.902 50C316.902 48.5667 316.569 47.4167 315.902 46.55C315.235 45.6667 314.294 45.225 313.077 45.225C311.877 45.225 310.927 45.6667 310.227 46.55C309.527 47.4167 309.169 48.525 309.152 49.875C309.152 51.2917 309.485 52.4417 310.152 53.325C310.819 54.2083 311.76 54.65 312.977 54.65ZM324.03 47.4C324.614 46.7667 325.28 46.2417 326.03 45.825C326.797 45.4083 327.48 45.2 328.08 45.2C328.864 45.2 329.422 45.45 329.755 45.95C330.089 46.45 330.255 47.15 330.255 48.05V55.975H332.23V47.775C332.23 46.475 331.914 45.4417 331.28 44.675C330.664 43.8917 329.714 43.5 328.43 43.5C327.664 43.5 326.855 43.7 326.005 44.1C325.155 44.5 324.439 45 323.855 45.6L323.53 43.875H322.055V56H324.03V47.4ZM338.613 44.075V40.425L336.638 40.975V44.075H334.863L334.888 45.575H336.638V52.85C336.638 53.9833 336.938 54.8583 337.538 55.475C338.155 56.075 338.988 56.375 340.038 56.375C340.671 56.375 341.288 56.2333 341.888 55.95L341.438 54.4C341.021 54.5667 340.655 54.65 340.338 54.65C339.755 54.65 339.321 54.4667 339.038 54.1C338.755 53.7333 338.613 53.225 338.613 52.575V45.575H341.463L340.813 44.075H338.613ZM354.871 50.25C354.871 48.25 354.446 46.6333 353.596 45.4C352.762 44.1667 351.462 43.55 349.696 43.55C348.529 43.55 347.512 43.825 346.646 44.375C345.796 44.9083 345.146 45.6583 344.696 46.625C344.262 47.575 344.046 48.6667 344.046 49.9C344.046 51.85 344.587 53.4083 345.671 54.575C346.754 55.7417 348.329 56.325 350.396 56.325C351.229 56.325 351.987 56.2167 352.671 56C353.354 55.7667 354.037 55.4583 354.721 55.075L354.096 53.625C353.346 53.9917 352.696 54.2583 352.146 54.425C351.612 54.5917 351.021 54.675 350.371 54.675C348.937 54.675 347.871 54.2833 347.171 53.5C346.487 52.7 346.121 51.6167 346.071 50.25H354.871ZM346.121 48.9C346.237 47.7667 346.587 46.875 347.171 46.225C347.771 45.5583 348.587 45.225 349.621 45.225C351.537 45.225 352.637 46.45 352.921 48.9H346.121ZM359.996 47.4C360.58 46.7667 361.246 46.2417 361.996 45.825C362.763 45.4083 363.446 45.2 364.046 45.2C364.83 45.2 365.388 45.45 365.721 45.95C366.055 46.45 366.221 47.15 366.221 48.05V55.975H368.196V47.775C368.196 46.475 367.88 45.4417 367.246 44.675C366.63 43.8917 365.68 43.5 364.396 43.5C363.63 43.5 362.821 43.7 361.971 44.1C361.121 44.5 360.405 45 359.821 45.6L359.496 43.875H358.021V56H359.996V47.4ZM374.579 44.075V40.425L372.604 40.975V44.075H370.829L370.854 45.575H372.604V52.85C372.604 53.9833 372.904 54.8583 373.504 55.475C374.12 56.075 374.954 56.375 376.004 56.375C376.637 56.375 377.254 56.2333 377.854 55.95L377.404 54.4C376.987 54.5667 376.62 54.65 376.304 54.65C375.72 54.65 375.287 54.4667 375.004 54.1C374.72 53.7333 374.579 53.225 374.579 52.575V45.575H377.429L376.779 44.075H374.579ZM398.371 49.975C398.371 51.2083 398.121 52.3083 397.621 53.275C397.138 54.225 396.438 54.975 395.521 55.525C394.605 56.0583 393.538 56.325 392.321 56.325C391.155 56.325 390.138 56.0583 389.271 55.525C388.405 54.975 387.738 54.2167 387.271 53.25C386.821 52.2667 386.596 51.15 386.596 49.9C386.613 48.6667 386.855 47.575 387.321 46.625C387.805 45.6583 388.496 44.9083 389.396 44.375C390.296 43.825 391.346 43.55 392.546 43.55C394.363 43.55 395.788 44.1333 396.821 45.3C397.855 46.45 398.371 48.0083 398.371 49.975ZM392.421 54.65C393.621 54.65 394.571 54.2167 395.271 53.35C395.971 52.4667 396.33 51.35 396.346 50C396.346 48.5667 396.013 47.4167 395.346 46.55C394.68 45.6667 393.738 45.225 392.521 45.225C391.321 45.225 390.371 45.6667 389.671 46.55C388.971 47.4167 388.613 48.525 388.596 49.875C388.596 51.2917 388.93 52.4417 389.596 53.325C390.263 54.2083 391.205 54.65 392.421 54.65ZM402.175 45.575V56H404.15V45.575H407.025L406.375 44.075H404.15V42.3C404.15 40.9167 404.716 40.225 405.85 40.225C406.016 40.225 406.208 40.25 406.425 40.3C406.641 40.35 406.816 40.4083 406.95 40.475L407.4 38.875C407.183 38.7583 406.908 38.6583 406.575 38.575C406.241 38.4917 405.908 38.45 405.575 38.45C404.525 38.45 403.691 38.7917 403.075 39.475C402.475 40.1417 402.175 41.0417 402.175 42.175V44.075H400.325L400.35 45.575H402.175ZM417.33 46.1C417.93 45.8333 418.48 45.6333 418.98 45.5C419.497 45.35 420.114 45.275 420.83 45.275C421.747 45.275 422.414 45.5333 422.83 46.05C423.264 46.5667 423.48 47.275 423.48 48.175V48.85H420.355C419.039 48.85 417.98 49.175 417.18 49.825C416.38 50.475 415.98 51.3833 415.98 52.55C415.98 53.6667 416.33 54.575 417.03 55.275C417.747 55.975 418.78 56.325 420.13 56.325C420.764 56.325 421.414 56.175 422.08 55.875C422.747 55.5583 423.305 55.1917 423.755 54.775L424.005 56H425.48V47.625C425.48 46.8417 425.28 46.1417 424.88 45.525C424.48 44.9083 423.922 44.425 423.205 44.075C422.489 43.725 421.672 43.55 420.755 43.55C420.205 43.55 419.505 43.65 418.655 43.85C417.822 44.05 417.189 44.3 416.755 44.6L417.33 46.1ZM417.805 52.55C417.805 51.8833 418.022 51.325 418.455 50.875C418.905 50.4083 419.522 50.175 420.305 50.175H423.505V52.925C423.055 53.4583 422.53 53.8917 421.93 54.225C421.347 54.5583 420.73 54.725 420.08 54.725C419.33 54.725 418.764 54.5083 418.38 54.075C417.997 53.6417 417.805 53.1333 417.805 52.55ZM440.797 43.55C442.597 43.55 444.006 44.1417 445.022 45.325C446.056 46.4917 446.572 48.0417 446.572 49.975C446.572 51.2083 446.331 52.3083 445.847 53.275C445.381 54.225 444.706 54.975 443.822 55.525C442.956 56.0583 441.931 56.325 440.747 56.325C439.864 56.325 438.939 56.0167 437.972 55.4V61.2L435.997 61.475V43.875H437.172L437.597 44.725C438.097 44.3583 438.631 44.075 439.197 43.875C439.764 43.6583 440.297 43.55 440.797 43.55ZM440.797 54.65C441.997 54.65 442.922 54.2167 443.572 53.35C444.222 52.4833 444.556 51.3667 444.572 50C444.572 48.5667 444.247 47.4167 443.597 46.55C442.964 45.6667 442.039 45.225 440.822 45.225C440.222 45.225 439.697 45.3167 439.247 45.5C438.797 45.6833 438.372 45.9667 437.972 46.35V53.575C438.372 53.925 438.797 54.1917 439.247 54.375C439.697 54.5583 440.214 54.65 440.797 54.65ZM450.757 46.1C451.357 45.8333 451.907 45.6333 452.407 45.5C452.924 45.35 453.541 45.275 454.257 45.275C455.174 45.275 455.841 45.5333 456.257 46.05C456.691 46.5667 456.907 47.275 456.907 48.175V48.85H453.782C452.466 48.85 451.407 49.175 450.607 49.825C449.807 50.475 449.407 51.3833 449.407 52.55C449.407 53.6667 449.757 54.575 450.457 55.275C451.174 55.975 452.207 56.325 453.557 56.325C454.191 56.325 454.841 56.175 455.507 55.875C456.174 55.5583 456.732 55.1917 457.182 54.775L457.432 56H458.907V47.625C458.907 46.8417 458.707 46.1417 458.307 45.525C457.907 44.9083 457.349 44.425 456.632 44.075C455.916 43.725 455.099 43.55 454.182 43.55C453.632 43.55 452.932 43.65 452.082 43.85C451.249 44.05 450.616 44.3 450.182 44.6L450.757 46.1ZM451.232 52.55C451.232 51.8833 451.449 51.325 451.882 50.875C452.332 50.4083 452.949 50.175 453.732 50.175H456.932V52.925C456.482 53.4583 455.957 53.8917 455.357 54.225C454.774 54.5583 454.157 54.725 453.507 54.725C452.757 54.725 452.191 54.5083 451.807 54.075C451.424 53.6417 451.232 53.1333 451.232 52.55ZM472.564 43.875V57.325C472.564 58.175 472.348 58.9333 471.914 59.6C471.481 60.2667 470.848 60.7917 470.014 61.175C469.181 61.5583 468.206 61.75 467.089 61.75C466.523 61.75 465.798 61.6417 464.914 61.425C464.048 61.225 463.364 60.9667 462.864 60.65L463.464 59.2C464.114 59.5167 464.689 59.75 465.189 59.9C465.706 60.05 466.314 60.125 467.014 60.125C468.064 60.125 468.914 59.8833 469.564 59.4C470.231 58.9167 470.564 58.2167 470.564 57.3V55.375C470.114 55.675 469.631 55.9083 469.114 56.075C468.614 56.2417 468.148 56.325 467.714 56.325C465.914 56.325 464.498 55.7417 463.464 54.575C462.448 53.3917 461.939 51.825 461.939 49.875C461.939 48.6417 462.173 47.55 462.639 46.6C463.123 45.6333 463.798 44.8833 464.664 44.35C465.548 43.8167 466.581 43.55 467.764 43.55C468.264 43.55 468.798 43.6583 469.364 43.875C469.931 44.0917 470.456 44.3833 470.939 44.75L471.364 43.875H472.564ZM467.689 54.65C468.289 54.65 468.814 54.5583 469.264 54.375C469.731 54.175 470.164 53.875 470.564 53.475V46.3C469.764 45.5833 468.814 45.225 467.714 45.225C466.514 45.225 465.589 45.6583 464.939 46.525C464.289 47.375 463.956 48.4833 463.939 49.85C463.939 51.3 464.256 52.4667 464.889 53.35C465.539 54.2167 466.473 54.65 467.689 54.65ZM486.673 50.25C486.673 48.25 486.248 46.6333 485.398 45.4C484.565 44.1667 483.265 43.55 481.498 43.55C480.332 43.55 479.315 43.825 478.448 44.375C477.598 44.9083 476.948 45.6583 476.498 46.625C476.065 47.575 475.848 48.6667 475.848 49.9C475.848 51.85 476.39 53.4083 477.473 54.575C478.557 55.7417 480.132 56.325 482.198 56.325C483.032 56.325 483.79 56.2167 484.473 56C485.157 55.7667 485.84 55.4583 486.523 55.075L485.898 53.625C485.148 53.9917 484.498 54.2583 483.948 54.425C483.415 54.5917 482.823 54.675 482.173 54.675C480.74 54.675 479.673 54.2833 478.973 53.5C478.29 52.7 477.923 51.6167 477.873 50.25H486.673ZM477.923 48.9C478.04 47.7667 478.39 46.875 478.973 46.225C479.573 45.5583 480.39 45.225 481.423 45.225C483.34 45.225 484.44 46.45 484.723 48.9H477.923ZM507.809 56L511.384 43.875H509.384L506.834 53.175L504.134 43.875H502.134L499.584 53.175L496.884 43.5L495.084 44.25L498.609 56H500.534L503.109 46.775L505.859 56H507.809ZM8.2 81.5C9.48333 81.5 10.4333 81.8917 11.05 82.675C11.6833 83.4417 12 84.475 12 85.775V93.975H10.025V86.05C10.025 85.15 9.85833 84.45 9.525 83.95C9.19167 83.45 8.63333 83.2 7.85 83.2C7.25 83.2 6.56667 83.4083 5.8 83.825C5.05 84.2417 4.38333 84.7667 3.8 85.4V94H1.825V76.6L3.8 76.35V83.425C4.38333 82.8583 5.075 82.4 5.875 82.05C6.69167 81.6833 7.46667 81.5 8.2 81.5ZM25.8766 88.25C25.8766 86.25 25.4516 84.6333 24.6016 83.4C23.7682 82.1667 22.4682 81.55 20.7016 81.55C19.5349 81.55 18.5182 81.825 17.6516 82.375C16.8016 82.9083 16.1516 83.6583 15.7016 84.625C15.2682 85.575 15.0516 86.6667 15.0516 87.9C15.0516 89.85 15.5932 91.4083 16.6766 92.575C17.7599 93.7417 19.3349 94.325 21.4016 94.325C22.2349 94.325 22.9932 94.2167 23.6766 94C24.3599 93.7667 25.0432 93.4583 25.7266 93.075L25.1016 91.625C24.3516 91.9917 23.7016 92.2583 23.1516 92.425C22.6182 92.5917 22.0266 92.675 21.3766 92.675C19.9432 92.675 18.8766 92.2833 18.1766 91.5C17.4932 90.7 17.1266 89.6167 17.0766 88.25H25.8766ZM17.1266 86.9C17.2432 85.7667 17.5932 84.875 18.1766 84.225C18.7766 83.5583 19.5932 83.225 20.6266 83.225C22.5432 83.225 23.6432 84.45 23.9266 86.9H17.1266ZM31.0021 85.4C31.5855 84.7667 32.2521 84.2417 33.0021 83.825C33.7688 83.4083 34.4521 83.2 35.0521 83.2C35.8355 83.2 36.3938 83.45 36.7271 83.95C37.0605 84.45 37.2271 85.15 37.2271 86.05V93.975H39.2021V85.775C39.2021 84.475 38.8855 83.4417 38.2521 82.675C37.6355 81.8917 36.6855 81.5 35.4021 81.5C34.6355 81.5 33.8271 81.7 32.9771 82.1C32.1271 82.5 31.4105 83 30.8271 83.6L30.5021 81.875H29.0271V94H31.0021V85.4ZM51.8195 94V76.35L49.8445 76.6V94H51.8195ZM66.9604 87.975C66.9604 89.2083 66.7104 90.3083 66.2104 91.275C65.727 92.225 65.027 92.975 64.1104 93.525C63.1937 94.0583 62.127 94.325 60.9104 94.325C59.7437 94.325 58.727 94.0583 57.8604 93.525C56.9937 92.975 56.327 92.2167 55.8604 91.25C55.4104 90.2667 55.1854 89.15 55.1854 87.9C55.202 86.6667 55.4437 85.575 55.9104 84.625C56.3937 83.6583 57.0854 82.9083 57.9854 82.375C58.8854 81.825 59.9354 81.55 61.1354 81.55C62.952 81.55 64.377 82.1333 65.4104 83.3C66.4437 84.45 66.9604 86.0083 66.9604 87.975ZM61.0104 92.65C62.2104 92.65 63.1604 92.2167 63.8604 91.35C64.5604 90.4667 64.9187 89.35 64.9354 88C64.9354 86.5667 64.602 85.4167 63.9354 84.55C63.2687 83.6667 62.327 83.225 61.1104 83.225C59.9104 83.225 58.9604 83.6667 58.2604 84.55C57.5604 85.4167 57.202 86.525 57.1854 87.875C57.1854 89.2917 57.5187 90.4417 58.1854 91.325C58.852 92.2083 59.7937 92.65 61.0104 92.65ZM81.1137 87.975C81.1137 89.2083 80.8637 90.3083 80.3637 91.275C79.8803 92.225 79.1803 92.975 78.2637 93.525C77.347 94.0583 76.2803 94.325 75.0637 94.325C73.897 94.325 72.8803 94.0583 72.0137 93.525C71.147 92.975 70.4803 92.2167 70.0137 91.25C69.5637 90.2667 69.3387 89.15 69.3387 87.9C69.3553 86.6667 69.597 85.575 70.0637 84.625C70.547 83.6583 71.2387 82.9083 72.1387 82.375C73.0387 81.825 74.0887 81.55 75.2887 81.55C77.1053 81.55 78.5303 82.1333 79.5637 83.3C80.597 84.45 81.1137 86.0083 81.1137 87.975ZM75.1637 92.65C76.3637 92.65 77.3137 92.2167 78.0137 91.35C78.7137 90.4667 79.072 89.35 79.0887 88C79.0887 86.5667 78.7553 85.4167 78.0887 84.55C77.422 83.6667 76.4803 83.225 75.2637 83.225C74.0637 83.225 73.1137 83.6667 72.4137 84.55C71.7137 85.4167 71.3553 86.525 71.3387 87.875C71.3387 89.2917 71.672 90.4417 72.3387 91.325C73.0053 92.2083 73.947 92.65 75.1637 92.65ZM86.467 94V89.45L88.142 87.775L92.142 94H94.467L89.467 86.475L93.167 82.8L91.967 81.55L86.467 87.075V76.35L84.492 76.6V94H86.467ZM97.759 79.45C98.1257 79.45 98.4423 79.325 98.709 79.075C98.9757 78.8083 99.109 78.4917 99.109 78.125C99.109 77.7583 98.9757 77.4417 98.709 77.175C98.4423 76.9083 98.1257 76.775 97.759 76.775C97.3757 76.775 97.059 76.9083 96.809 77.175C96.559 77.425 96.434 77.7417 96.434 78.125C96.434 78.5083 96.559 78.825 96.809 79.075C97.059 79.325 97.3757 79.45 97.759 79.45ZM98.784 94V81.875H96.784V94H98.784ZM104.636 85.4C105.219 84.7667 105.886 84.2417 106.636 83.825C107.403 83.4083 108.086 83.2 108.686 83.2C109.469 83.2 110.028 83.45 110.361 83.95C110.694 84.45 110.861 85.15 110.861 86.05V93.975H112.836V85.775C112.836 84.475 112.519 83.4417 111.886 82.675C111.269 81.8917 110.319 81.5 109.036 81.5C108.269 81.5 107.461 81.7 106.611 82.1C105.761 82.5 105.044 83 104.461 83.6L104.136 81.875H102.661V94H104.636V85.4ZM126.518 81.875V95.325C126.518 96.175 126.302 96.9333 125.868 97.6C125.435 98.2667 124.802 98.7917 123.968 99.175C123.135 99.5583 122.16 99.75 121.043 99.75C120.477 99.75 119.752 99.6417 118.868 99.425C118.002 99.225 117.318 98.9667 116.818 98.65L117.418 97.2C118.068 97.5167 118.643 97.75 119.143 97.9C119.66 98.05 120.268 98.125 120.968 98.125C122.018 98.125 122.868 97.8833 123.518 97.4C124.185 96.9167 124.518 96.2167 124.518 95.3V93.375C124.068 93.675 123.585 93.9083 123.068 94.075C122.568 94.2417 122.102 94.325 121.668 94.325C119.868 94.325 118.452 93.7417 117.418 92.575C116.402 91.3917 115.893 89.825 115.893 87.875C115.893 86.6417 116.127 85.55 116.593 84.6C117.077 83.6333 117.752 82.8833 118.618 82.35C119.502 81.8167 120.535 81.55 121.718 81.55C122.218 81.55 122.752 81.6583 123.318 81.875C123.885 82.0917 124.41 82.3833 124.893 82.75L125.318 81.875H126.518ZM121.643 92.65C122.243 92.65 122.768 92.5583 123.218 92.375C123.685 92.175 124.118 91.875 124.518 91.475V84.3C123.718 83.5833 122.768 83.225 121.668 83.225C120.468 83.225 119.543 83.6583 118.893 84.525C118.243 85.375 117.91 86.4833 117.893 87.85C117.893 89.3 118.21 90.4667 118.843 91.35C119.493 92.2167 120.427 92.65 121.643 92.65ZM138.163 84.1C138.763 83.8333 139.313 83.6333 139.813 83.5C140.329 83.35 140.946 83.275 141.663 83.275C142.579 83.275 143.246 83.5333 143.663 84.05C144.096 84.5667 144.313 85.275 144.313 86.175V86.85H141.188C139.871 86.85 138.813 87.175 138.013 87.825C137.213 88.475 136.813 89.3833 136.813 90.55C136.813 91.6667 137.163 92.575 137.863 93.275C138.579 93.975 139.613 94.325 140.963 94.325C141.596 94.325 142.246 94.175 142.912 93.875C143.579 93.5583 144.138 93.1917 144.588 92.775L144.838 94H146.313V85.625C146.313 84.8417 146.113 84.1417 145.713 83.525C145.313 82.9083 144.754 82.425 144.038 82.075C143.321 81.725 142.504 81.55 141.588 81.55C141.038 81.55 140.338 81.65 139.488 81.85C138.654 82.05 138.021 82.3 137.588 82.6L138.163 84.1ZM138.638 90.55C138.638 89.8833 138.854 89.325 139.288 88.875C139.738 88.4083 140.354 88.175 141.138 88.175H144.338V90.925C143.888 91.4583 143.363 91.8917 142.763 92.225C142.179 92.5583 141.563 92.725 140.913 92.725C140.163 92.725 139.596 92.5083 139.213 92.075C138.829 91.6417 138.638 91.1333 138.638 90.55ZM152.67 82.075V78.425L150.695 78.975V82.075H148.92L148.945 83.575H150.695V90.85C150.695 91.9833 150.995 92.8583 151.595 93.475C152.211 94.075 153.045 94.375 154.095 94.375C154.728 94.375 155.345 94.2333 155.945 93.95L155.495 92.4C155.078 92.5667 154.711 92.65 154.395 92.65C153.811 92.65 153.378 92.4667 153.095 92.1C152.811 91.7333 152.67 91.225 152.67 90.575V83.575H155.52L154.87 82.075H152.67ZM159.402 94C159.769 94 160.077 93.8667 160.327 93.6C160.594 93.3333 160.727 93.0167 160.727 92.65C160.727 92.2833 160.594 91.975 160.327 91.725C160.077 91.4583 159.769 91.325 159.402 91.325C159.019 91.325 158.694 91.4583 158.427 91.725C158.161 91.975 158.027 92.2833 158.027 92.65C158.027 93.0333 158.161 93.3583 158.427 93.625C158.694 93.875 159.019 94 159.402 94Z" fill="#153461"/>
</svg>
